<svg xmlns="http://www.w3.org/2000/svg" xmlns:xlink="http://www.w3.org/1999/xlink" viewBox="0 0 1200 1200"><defs><style>.cls-1{fill:none;}.cls-2{isolation:isolate;}.cls-3{fill:#ededf4;}.cls-4{fill:#f3f2ad;}.cls-5{fill:#77740e;}.cls-6{fill:#f485b7;}.cls-7{fill:#87315c;}.cls-8{fill:#f1f29d;}.cls-9{fill:#ffe98c;}.cls-10{clip-path:url(#clip-path);}.cls-11{fill:#1a4b98;}.cls-12{fill:#56b0aa;}.cls-13{opacity:0.5;}.cls-14{clip-path:url(#clip-path-2);}.cls-15{fill:#f2cc0f;}.cls-16{clip-path:url(#clip-path-3);}.cls-17{fill:#95b0dd;}.cls-18{clip-path:url(#clip-path-4);}.cls-19{fill:#0597f2;}.cls-20{clip-path:url(#clip-path-5);}.cls-21{fill:#fdd24c;}.cls-22{clip-path:url(#clip-path-6);}.cls-23{fill:#9dd7c1;}.cls-24{opacity:0.7;mix-blend-mode:soft-light;fill:url(#linear-gradient);}</style><clipPath id="clip-path"><rect class="cls-1" x="729.95" y="425.68" width="233.72" height="186.97"/></clipPath><clipPath id="clip-path-2"><rect class="cls-1" x="483.14" y="425.68" width="233.72" height="186.97"/></clipPath><clipPath id="clip-path-3"><rect class="cls-1" x="236.34" y="425.68" width="233.72" height="186.97"/></clipPath><clipPath id="clip-path-4"><rect class="cls-1" x="729.95" y="627.05" width="233.72" height="186.97"/></clipPath><clipPath id="clip-path-5"><rect class="cls-1" x="483.14" y="627.05" width="233.72" height="186.97"/></clipPath><clipPath id="clip-path-6"><rect class="cls-1" x="236.34" y="627.05" width="233.72" height="186.97"/></clipPath><linearGradient id="linear-gradient" x1="193.87" y1="600" x2="1006.13" y2="600" gradientUnits="userSpaceOnUse"><stop offset="0" stop-color="#d979d2"/><stop offset="1" stop-color="#50bf80"/></linearGradient></defs><g class="cls-2"><g id="Layer_1" data-name="Layer 1"><path class="cls-3" d="M128.93,789c-22.79-57.61-9-132.7,43.4-165.7,22-13.84,49.93-20.54,64.83-41.83,33.06-52.56-14.5-146.92-22.66-216C182.53,94.82,529.42,223,659.65,281.22c74.63,33.37,228.16-92.78,302.26-58.22,110.59,51.58,116.1,154.58,100.71,245.45-13.82,81.64-107.22,111.3-95.57,169.39,30.9,106,199.69,160.39,60,285.73-73,51.59-168,33.78-252.07,38.61-60.37,3.66-119.25,19.27-178.35,32.11-120.09,32-253.31,27.64-339.43-71.71C209.44,878.38,154.62,854,128.93,789Z"/><rect class="cls-4" x="198.18" y="274.58" width="803.63" height="650.85" rx="10.34"/><path class="cls-5" d="M991.48,274.58a10.34,10.34,0,0,1,10.34,10.33V915.09a10.34,10.34,0,0,1-10.34,10.33h-783a10.34,10.34,0,0,1-10.34-10.33V284.91a10.34,10.34,0,0,1,10.34-10.33h783m0-4.32h-783a14.66,14.66,0,0,0-14.65,14.65V915.09a14.66,14.66,0,0,0,14.65,14.65h783a14.66,14.66,0,0,0,14.65-14.65V284.91a14.66,14.66,0,0,0-14.65-14.65Z"/><path class="cls-6" d="M1001.82,284.78V309.1H198.18V284.78a10.21,10.21,0,0,1,10.21-10.2H991.61A10.21,10.21,0,0,1,1001.82,284.78Z"/><path class="cls-7" d="M991.61,274.58a10.21,10.21,0,0,1,10.21,10.2V309.1H198.18V284.78a10.21,10.21,0,0,1,10.21-10.2H991.61m0-4.32H208.39a14.54,14.54,0,0,0-14.52,14.52v28.64h812.26V284.78a14.54,14.54,0,0,0-14.52-14.52Z"/><circle class="cls-8" cx="225.81" cy="291.41" r="6.35"/><circle class="cls-8" cx="244.8" cy="291.41" r="6.35"/><circle class="cls-8" cx="263.79" cy="291.41" r="6.35"/><rect class="cls-9" x="729.95" y="425.68" width="233.72" height="186.97"/><path class="cls-5" d="M963.66,425.68v187H730v-187H963.66m4.26-4.25H725.69V616.91H967.92V421.43Z"/><g class="cls-10"><path class="cls-11" d="M838.31,439.32h25.52a36.75,36.75,0,0,1,36.75,36.75v39.56a41.51,41.51,0,0,1-41.51,41.51h-16a41.51,41.51,0,0,1-41.51-41.51V476.07a36.75,36.75,0,0,1,36.75-36.75Z"/><rect class="cls-6" x="807.69" y="455.83" width="62.32" height="69.93" rx="27.76"/><path class="cls-6" d="M866.84,566c-13.12.14-26.24.6-39.36,1.07.6-7.58-6.74-15.15-6.2-22.73.05-.73,8-1.46,8-2.19.86-12.19,1.69-24.37,2.62-36.55q15.45.18,30.9.31,1.06,18.91,2.38,37.82c0,.62,9,1.23,9,1.85C874.71,552.43,866.33,559.24,866.84,566Z"/><path class="cls-6" d="M860.79,493.83c0,7.93,6,12.94,13.31,12.42A14.52,14.52,0,0,0,887.74,492c0-7.91-6-12.93-13.32-12.42A14.47,14.47,0,0,0,860.79,493.83Z"/><rect class="cls-11" x="867.24" y="433.31" width="35.34" height="25.99" rx="13" transform="translate(-90.91 619.57) rotate(-36.83)"/><rect class="cls-11" x="798.56" y="451.82" width="35.34" height="25.99" rx="13" transform="translate(-118.87 553.54) rotate(-35.08)"/><rect class="cls-11" x="827.69" y="451.82" width="35.34" height="25.99" rx="13" transform="translate(396.29 -389.01) rotate(33.45)"/><path class="cls-11" d="M856.46,510l.42-40.47a8.05,8.05,0,0,1,8.28-7.82h0A8,8,0,0,1,873,470l-.42,40.47a8.06,8.06,0,0,1-8.27,7.83h0A8.06,8.06,0,0,1,856.46,510Z"/><path class="cls-6" d="M804.22,605.9l-.65.69-.92,1.06-8,9.27H749.9L769.72,585l2.57-4.14a20.34,20.34,0,0,1,29.58-4.37c.25.21.51.43.75.66A20.31,20.31,0,0,1,804.22,605.9Z"/><polygon class="cls-12" points="899.98 541.14 898.82 575.36 898 599.66 898 599.78 897.42 616.92 804.83 616.92 804.28 607.04 804.22 605.9 802.62 577.13 800.63 541.14 823.59 541.14 825.89 543.17 841.62 557.12 850.3 564.8 858.05 557.14 870.53 544.8 874.23 541.14 899.98 541.14"/><path class="cls-6" d="M958,616.92H914.58L900.85,603a20.49,20.49,0,0,1-2.86-3.2c-.11-.15-.21-.31-.31-.47a20.08,20.08,0,0,1,1.14-23.95,19.41,19.41,0,0,1,2.91-2.89,20.08,20.08,0,0,1,28.82,3.78l1.88,2.67,25.28,35.83Z"/><path class="cls-12" d="M877,576.78l22.77,24.76,31.53-21.16c1.69-1.14,2-3.69.63-5.69l-20.12-27.16A16.92,16.92,0,0,0,887,544.9l-8.77,7.73A16.93,16.93,0,0,0,877,576.78Z"/><path class="cls-12" d="M822.23,577.56l-18.69,30.69L771,586.39c-2-1.37-2.38-4.44-.76-6.87l17.33-30.37a22.43,22.43,0,0,1,31.37-3.73h0A22.42,22.42,0,0,1,822.23,577.56Z"/></g><g class="cls-13"><rect class="cls-6" x="729.95" y="582.92" width="233.72" height="29.79"/></g><rect class="cls-11" x="830.72" y="597.82" width="23.9" height="3.42" rx="1.34"/><rect class="cls-11" x="858.17" y="597.82" width="11.37" height="3.42" rx="1.34"/><rect class="cls-9" x="483.14" y="425.68" width="233.72" height="186.97"/><path class="cls-5" d="M716.86,425.68v187H483.14v-187H716.86m4.25-4.25H478.89V616.91H721.11V421.43Z"/><g class="cls-14"><rect class="cls-11" x="559.16" y="444.91" width="84.67" height="86.15" rx="30.01" transform="translate(1203 975.98) rotate(180)"/><path class="cls-6" d="M576.23,587.87c13.54.15,27.08.68,40.62,1.22-1.67-23.53-3-47.08-4.61-70.61q-15.94.21-31.88.35Q578.62,553.38,576.23,587.87Z"/><path class="cls-6" d="M617.7,541.52h-8.38c-18.92,0-44.1-14.36-44.1-32.08V492.8c0-17.72,15.34-32.08,34.26-32.08h8.39c18.92,0,34.26,14.36,34.26,32.08v16.64C642.13,527.16,636.62,541.52,617.7,541.52Z"/><rect class="cls-11" x="585.45" y="455.02" width="61.89" height="33.55" rx="16.78" transform="translate(1103.08 1076.5) rotate(-166.26)"/><rect class="cls-11" x="552.88" y="456.29" width="42.21" height="33.55" rx="16.78" transform="translate(1261.37 757.21) rotate(162.96)"/><path class="cls-6" d="M580.8,504.63c0,9.16-6,15-13.28,14.35s-13.56-7.36-13.6-16.51,6-14.94,13.28-14.35S580.77,495.48,580.8,504.63Z"/><path class="cls-15" d="M664.36,572.5v44.42h-132V572.5a14.78,14.78,0,0,1,14.8-14.81H649.55a14.31,14.31,0,0,1,3.22.35A14.81,14.81,0,0,1,664.36,572.5Z"/><path class="cls-6" d="M499.6,616.92l3.45-5.42a23,23,0,0,1,29.34-8.34,23.44,23.44,0,0,1,4.45,2.82,22.9,22.9,0,0,1,7.48,10.94Z"/><path class="cls-15" d="M576.74,587.88a20.68,20.68,0,0,1-3.53,11.39l-11.84,17.65H497.88l0,0c-2.35-1.58-2.75-5.12-.87-7.91l28.18-42a20.78,20.78,0,0,1,19.36-9.08,20.53,20.53,0,0,1,9.44,3.42l13.59,9.12a20.8,20.8,0,0,1,8.92,13.89v0A21.46,21.46,0,0,1,576.74,587.88Z"/><path class="cls-6" d="M689,608.53l5.39,8.39H646.66a23.21,23.21,0,0,1,17.7-18.46,22.52,22.52,0,0,1,5.09-.58A23.15,23.15,0,0,1,689,608.53Z"/><path class="cls-15" d="M696.21,616.92H631.16l-12.31-18.33a18.94,18.94,0,0,1-2.44-15.82h0A18.83,18.83,0,0,1,624,572.4l16.72-11.22a18.88,18.88,0,0,1,26.19,5.15l29.24,43.55A6,6,0,0,1,696.21,616.92Z"/></g><g class="cls-13"><rect class="cls-6" x="483.14" y="582.92" width="233.72" height="29.79"/></g><rect class="cls-11" x="580.59" y="597.82" width="23.9" height="3.42" rx="1.34"/><rect class="cls-11" x="608.04" y="597.82" width="11.37" height="3.42" rx="1.34"/><rect class="cls-9" x="236.34" y="425.68" width="233.72" height="186.97"/><path class="cls-5" d="M470.05,425.68v187H236.34v-187H470.05m4.26-4.25H232.08V616.91H474.31V421.43Z"/><g class="cls-16"><rect class="cls-11" x="312.62" y="438.02" width="74.43" height="74.43" rx="5.22" transform="translate(699.67 950.47) rotate(180)"/><path class="cls-6" d="M330.9,561.68c13.1.14,26.19.6,39.28,1.06-1.61-20.44-2.89-40.9-4.45-61.34q-15.42.18-30.84.31Q333.21,531.73,330.9,561.68Z"/><rect class="cls-6" x="321.21" y="451.68" width="72.32" height="69.79" rx="14.6" transform="translate(714.73 973.15) rotate(180)"/><rect class="cls-11" x="318.35" y="446.75" width="23.55" height="54.64" rx="5.22" transform="translate(660.25 948.15) rotate(180)"/><path class="cls-6" d="M336.94,489.61c0,7.91-6,12.92-13.29,12.39A14.49,14.49,0,0,1,310,487.74c0-7.9,6-12.91,13.3-12.39A14.45,14.45,0,0,1,336.94,489.61Z"/><circle class="cls-11" cx="387.93" cy="454.89" r="20.42"/><circle class="cls-11" cx="360.84" cy="454.89" r="20.42"/><path class="cls-17" d="M412.52,553.58v63.34H285.26V553.58a14.27,14.27,0,0,1,11.71-14,13.6,13.6,0,0,1,2.58-.24h98.69a14.65,14.65,0,0,1,3,.31A14.28,14.28,0,0,1,412.52,553.58Z"/><path class="cls-6" d="M297.79,603.13A22,22,0,0,1,293,616.92H240.54l12.6-19.72,3.83-6a22.15,22.15,0,0,1,40.82,11.93Z"/><path class="cls-17" d="M324.63,579.41l-25.19,37.51H282.51L253.14,597.2l-1.18-.8c-2.27-1.52-2.65-4.93-.85-7.61l27.18-40.49a20,20,0,0,1,27.78-5.47l13.09,8.8A20,20,0,0,1,324.63,579.41Z"/><path class="cls-17" d="M439.67,563.81l-8.12,49.92a6.59,6.59,0,0,1-1.43,3.19H414.63l-2.11-.34-17-2.76-20-3.26,9.05-55.71a18.2,18.2,0,0,1,20.89-15l16.9,2.75,2.26.37a18,18,0,0,1,6.46,2.36,18.21,18.21,0,0,1,8.58,18.52Z"/><path class="cls-6" d="M445.79,544.82,432.38,616.7a1.63,1.63,0,0,1-.08.22H396.35a22.34,22.34,0,0,1,2.86-20l13.31-28.39,10.78-23,.64,0,7.15-.23,3.46-.11,11-.35Z"/><path class="cls-6" d="M434.15,509.37h0a11.88,11.88,0,0,1,12,11.08l1.17,17.3a11.87,11.87,0,0,1-11.71,12.67l-1.89,0a11.88,11.88,0,0,1-12-12.38l.73-17.32A11.87,11.87,0,0,1,434.15,509.37Z"/></g><g class="cls-13"><rect class="cls-6" x="236.34" y="582.87" width="233.72" height="29.79"/></g><rect class="cls-11" x="338.83" y="597.82" width="23.9" height="3.42" rx="1.34"/><rect class="cls-11" x="366.27" y="597.82" width="11.37" height="3.42" rx="1.34"/><rect class="cls-9" x="729.95" y="627.05" width="233.72" height="186.97"/><path class="cls-5" d="M963.66,627.05V814H730v-187H963.66m4.26-4.26H725.69V818.28H967.92V622.79Z"/><g class="cls-18"><path class="cls-6" d="M778.36,658.77l-11.76-3.08-11.77-3.07-32.75,124.3,40.25,24.3a24.18,24.18,0,0,0,34.25-10.13h0A24.18,24.18,0,0,0,783,757.76l-20.45-11Z"/><path class="cls-6" d="M775.79,620.53h0A12.85,12.85,0,0,0,760.31,629l-5.73,17.85a12.85,12.85,0,0,0,9,16.35l2,.52a12.84,12.84,0,0,0,15.83-9.87l3.74-18.37A12.84,12.84,0,0,0,775.79,620.53Z"/><path class="cls-19" d="M843.2,793.19a19,19,0,0,1-.78,2.54l-7.49,19.61a18.93,18.93,0,0,1-1.41,2.94h-46l-35-13.36,3-7.82,16.64-43.56a4.32,4.32,0,0,1,.72-1.23,6.21,6.21,0,0,1,7.1-1.5l23.23,8.87,27.86,10.64a18.25,18.25,0,0,1,2.78,1.33A19.65,19.65,0,0,1,843.2,793.19Z"/><rect class="cls-6" x="809.64" y="666.68" width="71.07" height="79.74" rx="31.66"/><path class="cls-6" d="M877.09,792.36c-15,.16-29.92.68-44.88,1.21,1.84-23.35,3.3-46.73,5.09-70.09q17.61.21,35.23.35Q874.45,758.14,877.09,792.36Z"/><path class="cls-6" d="M870.19,710c0,9,6.88,14.75,15.18,14.15a16.56,16.56,0,0,0,15.56-16.29c.05-9-6.89-14.75-15.2-14.16A16.51,16.51,0,0,0,870.19,710Z"/><path class="cls-11" d="M903.59,673.74c-.24,3.61.14,8.52-.24,11.86-1.05,9.2-6.18,13.9-15.2,14.88-2,.21-5-.17-7.2-.05h0c-.82-3.36-1.76-5.9-6.06-6-18.15-.42-37.17-.41-55.54-.73,0-3.71.07-7.44.11-11.16h-.06a6.49,6.49,0,0,0-6.57,6.42c0,1.55,0,3.11-.08,4.68-2.71-.25-6.56.18-9.08-.17-7.52-1.08-11.77-4.79-12.3-12.75-.36-5.32.32-12.53.14-18.18a1.32,1.32,0,0,1,.43,0c7.23-.7,11.19-4.83,12.24-11.9h0c.37-2.55,1.54-4.18,4.5-4.26,5.11-.13,11.18.18,16.49.16h0c.65,2.56,1.32,4.53,4.65,4.59,21.33.42,43.29.51,64.78.88.12,3.79-.31,8.65-.1,12.22.35,5.94,3.69,8.6,9.09,9.53Z"/><path class="cls-19" d="M925.1,775.12v43.16H787.51V775.12A15.45,15.45,0,0,1,803,759.68H909.66a15,15,0,0,1,2.78.25A15.44,15.44,0,0,1,925.1,775.12Z"/><path class="cls-6" d="M955.69,815.79l1.6,2.49H913.92a23.77,23.77,0,0,1,6.55-8.25,23.9,23.9,0,0,1,35.22,5.76Z"/><path class="cls-19" d="M963.14,818.28H892.78L882.54,803a21.65,21.65,0,0,1,5.91-30l14.16-9.51a21.64,21.64,0,0,1,30,5.91L962,813.17A6.82,6.82,0,0,1,963.14,818.28Z"/><polygon class="cls-19" points="877.04 748.48 854.95 765.97 891.76 765.97 877.04 748.48"/><polygon class="cls-19" points="835.62 748.48 813.54 765.97 850.35 765.97 835.62 748.48"/></g><g class="cls-13"><rect class="cls-6" x="729.95" y="784.23" width="233.72" height="29.79"/></g><rect class="cls-11" x="830.72" y="797.42" width="23.9" height="3.42" rx="1.34"/><rect class="cls-11" x="858.17" y="797.42" width="11.37" height="3.42" rx="1.34"/><rect class="cls-9" x="483.14" y="627.05" width="233.72" height="186.97"/><path class="cls-5" d="M716.86,627.05V814H483.14v-187H716.86m4.25-4.26H478.89V818.28H721.11V622.79Z"/><g class="cls-20"><rect class="cls-11" x="612.73" y="644.28" width="38.55" height="28.36" rx="14.18" transform="translate(-268.58 510.31) rotate(-36.83)"/><path class="cls-11" d="M588.65,643.36h15.5a40.1,40.1,0,0,1,40.1,40.1v69.6a4.75,4.75,0,0,1-4.75,4.75H553.3a4.75,4.75,0,0,1-4.75-4.75v-69.6A40.1,40.1,0,0,1,588.65,643.36Z"/><path class="cls-6" d="M619.65,782.69c-14.32.14-28.63.64-42.94,1.16,1.76-22.35,3.16-44.72,4.87-67.07q16.86.19,33.71.34Q617.12,749.93,619.65,782.69Z"/><path class="cls-6" d="M569.3,738.73h7.41c16.73,0,46.4-13.56,46.4-30.29V692.72a30.29,30.29,0,0,0-30.29-30.29h-7.41a30.29,30.29,0,0,0-30.29,30.29v15.72C555.12,725.17,552.57,738.73,569.3,738.73Z"/><path class="cls-6" d="M613.05,703.9c0,8.65,6.58,14.12,14.53,13.54a15.84,15.84,0,0,0,14.88-15.58c0-8.64-6.59-14.12-14.54-13.56A15.8,15.8,0,0,0,613.05,703.9Z"/><rect class="cls-11" x="545.28" y="659.22" width="38.55" height="28.36" rx="14.18" transform="translate(-284.47 446.79) rotate(-35.08)"/><rect class="cls-11" x="577.07" y="659.22" width="38.55" height="28.36" rx="14.18" transform="translate(470.02 -217.18) rotate(33.45)"/><rect class="cls-11" x="600.31" y="676.13" width="34.32" height="17.57" rx="8.79" transform="translate(1319.19 86.62) rotate(91.58)"/><path class="cls-6" d="M698.94,818.28H645.85a21.8,21.8,0,0,1,3.49-24.57,20.9,20.9,0,0,1,2.32-2.18,21.82,21.82,0,0,1,31.3,4.1l2,2.91Z"/><path class="cls-6" d="M551.42,818.28h-51l8.69-14,2.79-4.49A22.09,22.09,0,0,1,544,795l.82.7A22.09,22.09,0,0,1,551.42,818.28Z"/><polygon class="cls-21" points="650.59 756.67 650.58 757.21 649.34 793.71 648.51 818.28 546.1 818.28 544.85 795.74 542.68 756.67 650.59 756.67"/><path class="cls-21" d="M685,798.54a3.45,3.45,0,0,1-1.27,1.58l-27.06,18.16H645.05l-20.3-22.07A18.37,18.37,0,0,1,626.13,770l9.52-8.4a18.38,18.38,0,0,1,26.92,2.85l21.85,29.5A4.93,4.93,0,0,1,685,798.54Z"/><path class="cls-21" d="M571.9,780.52a24.23,24.23,0,0,1-5.76,15.71l-13.43,22H529.05l-18.57-12.46a4.21,4.21,0,0,1-1.37-1.54,5.85,5.85,0,0,1,.55-5.92l18.82-33a24.29,24.29,0,0,1,21.31-9.1,23.95,23.95,0,0,1,6.59,1.55,24.6,24.6,0,0,1,6.16,3.5A24.31,24.31,0,0,1,571.9,780.52Z"/></g><g class="cls-13"><rect class="cls-6" x="483.14" y="784.23" width="233.72" height="29.79"/></g><rect class="cls-11" x="580.59" y="797.42" width="23.9" height="3.42" rx="1.34"/><rect class="cls-11" x="608.04" y="797.42" width="11.37" height="3.42" rx="1.34"/><rect class="cls-9" x="236.34" y="627.05" width="233.72" height="186.97"/><path class="cls-5" d="M470.05,627.05V814H236.34v-187H470.05m4.26-4.26H232.08V818.28H474.31V622.79Z"/><g class="cls-22"><rect class="cls-11" x="313.44" y="637.82" width="86.15" height="86.15" rx="30.27" transform="translate(713.04 1361.8) rotate(180)"/><path class="cls-6" d="M333.78,781c15.17.15,30.32.68,45.48,1.23-1.86-23.67-3.35-47.35-5.16-71q-17.85.21-35.69.36Q336.46,746.28,333.78,781Z"/><path class="cls-6" d="M387.11,734.42h-7.85c-17.72,0-49.14-14.36-49.14-32.07V685.71a32.08,32.08,0,0,1,32.08-32.08h7.85a32.07,32.07,0,0,1,32.07,32.08v16.64C402.12,720.06,404.82,734.42,387.11,734.42Z"/><rect class="cls-11" x="352.48" y="647.93" width="61.89" height="33.55" rx="16.78" transform="translate(597.99 1401.45) rotate(-166.26)"/><rect class="cls-11" x="319.5" y="649.2" width="42.21" height="33.55" rx="16.78" transform="translate(861.37 1202.94) rotate(162.96)"/><path class="cls-6" d="M340.78,697.54c0,9.16-7,15-15.39,14.34a16.77,16.77,0,0,1-15.76-16.5c-.05-9.15,7-15,15.4-14.35A16.73,16.73,0,0,1,340.78,697.54Z"/><path class="cls-23" d="M417.55,773.86v44.42h-132V773.86a14.79,14.79,0,0,1,12.13-14.56,13.81,13.81,0,0,1,2.67-.25H402.74a14.25,14.25,0,0,1,3.22.36A14.8,14.8,0,0,1,417.55,773.86Z"/><path class="cls-6" d="M252.78,818.28l3.47-5.42a23,23,0,0,1,41.26,5.42Z"/><path class="cls-23" d="M326.41,800.64l-11.85,17.64H252.78l-.51.8-1.19-.8,0,0c-2.36-1.58-2.75-5.12-.88-7.9l28.18-42a20.74,20.74,0,0,1,19.37-9.08,20.44,20.44,0,0,1,9.43,3.41l13.6,9.12A20.77,20.77,0,0,1,326.41,800.64Z"/><path class="cls-6" d="M447.57,818.28H399.85a23.21,23.21,0,0,1,17.7-18.45,22.56,22.56,0,0,1,5.11-.58,23.12,23.12,0,0,1,19.52,10.65Z"/><path class="cls-23" d="M449.41,818.28a4.11,4.11,0,0,1-1,.86l-.24.16-.65-1H384.35L372.05,800a18.87,18.87,0,0,1,5.15-26.19l16.71-11.22a18.88,18.88,0,0,1,26.19,5.15l29.24,43.54A6,6,0,0,1,449.41,818.28Z"/><polygon class="cls-6" points="251.08 818.28 252.78 818.28 252.27 819.08 251.08 818.28"/><path class="cls-6" d="M449.41,818.28a4.11,4.11,0,0,1-1,.86l-.24.16-.65-1Z"/></g><g class="cls-13"><rect class="cls-6" x="236.34" y="784.22" width="233.72" height="29.79"/></g><rect class="cls-11" x="338.83" y="797.42" width="23.9" height="3.42" rx="1.34"/><rect class="cls-11" x="366.27" y="797.42" width="11.37" height="3.42" rx="1.34"/><path class="cls-24" d="M991.61,270.26H208.39a14.54,14.54,0,0,0-14.52,14.52V915.09a14.66,14.66,0,0,0,14.65,14.65h783a14.66,14.66,0,0,0,14.65-14.65V284.78A14.54,14.54,0,0,0,991.61,270.26ZM994.55,925a10.37,10.37,0,0,1-3.07.46h0a10.37,10.37,0,0,0,3.07-.46,10.58,10.58,0,0,0,2.71-1.3A10.58,10.58,0,0,1,994.55,925Z"/></g></g></svg>