<svg xmlns="http://www.w3.org/2000/svg" xmlns:xlink="http://www.w3.org/1999/xlink" viewBox="0 0 1200 1200"><defs><style>.cls-1{fill:none;}.cls-2{isolation:isolate;}.cls-3{fill:#ededf4;}.cls-4{fill:#d4e9a8;}.cls-5{fill:#4c7d5f;}.cls-6{fill:#e5a1c3;}.cls-7{fill:#252424;}.cls-8{fill:url(#linear-gradient);}.cls-25,.cls-9{opacity:0.7;}.cls-10{fill:#9dd7c1;}.cls-11{fill:#3a7a54;}.cls-12{opacity:0.5;}.cls-13{fill:#f485b7;}.cls-14{fill:#ba4f85;}.cls-15{fill:#f1f29d;}.cls-16{clip-path:url(#clip-path);}.cls-17{fill:#1a4b98;}.cls-18{fill:#616161;}.cls-19{fill:url(#linear-gradient-2);}.cls-20{fill:#e17ba9;}.cls-21{fill:#0b0759;}.cls-22{fill:#18161f;}.cls-23{fill:#0d096c;}.cls-24{fill:#262432;}.cls-25{mix-blend-mode:soft-light;fill:url(#linear-gradient-3);}</style><linearGradient id="linear-gradient" x1="606.66" y1="955.16" x2="606.66" y2="293.9" gradientUnits="userSpaceOnUse"><stop offset="0" stop-color="#9dd7c1"/><stop offset="1" stop-color="#f1f29d"/></linearGradient><clipPath id="clip-path"><rect class="cls-1" x="436.88" y="253.48" width="339.56" height="689.67" rx="34.8"/></clipPath><linearGradient id="linear-gradient-2" x1="14.96" y1="648.27" x2="14.96" y2="622.28" gradientTransform="matrix(-1, 0.1, 0.1, 1, 581.88, -0.33)" xlink:href="#linear-gradient"/><linearGradient id="linear-gradient-3" x1="210.31" y1="814.24" x2="1053.75" y2="358.33" gradientUnits="userSpaceOnUse"><stop offset="0" stop-color="#d979d2"/><stop offset="1" stop-color="#50bf80"/></linearGradient></defs><g class="cls-2"><g id="Layer_1" data-name="Layer 1"><path class="cls-3" d="M128.93,789.69c-22.79-57.61-9-132.7,43.4-165.71,22-13.84,49.93-20.53,64.83-41.82,33.06-52.56-30.69-147.57-22.66-216C211,250,252,198.31,393.91,188.13s233.52,74.94,265.74,93.75C730.26,323.1,822.13,279.2,901,300.64,971.17,319.7,1020.49,396.19,1008.9,468c-9.45,58.49-53.5,112.47-41.85,170.56,30.9,106,199.69,160.38,60,285.72-73,51.6-168,33.79-252.07,38.61-60.37,3.67-119.25,19.28-178.35,32.12-120.09,32-253.31,27.64-339.43-71.71C209.44,879.05,154.62,854.63,128.93,789.69Z"/><path class="cls-4" d="M208.14,695l53-31.24a7.13,7.13,0,0,1,3.61-1H548.7a8.6,8.6,0,0,0,8.78-8.41V573a8.6,8.6,0,0,0-8.78-8.4H215.79c-4.23,0-7.65,3.76-7.65,8.4Z"/><path class="cls-5" d="M548.7,564.57a8.6,8.6,0,0,1,8.78,8.4v81.4a8.6,8.6,0,0,1-8.78,8.41H264.77a7.13,7.13,0,0,0-3.61,1l-53,31.24V573c0-4.64,3.42-8.4,7.65-8.4H548.7m0-5H215.79c-7,0-12.62,6-12.62,13.37V703.71l7.5-4.42,53-31.24a2.16,2.16,0,0,1,1.09-.3H548.7a13.58,13.58,0,0,0,13.75-13.38V573A13.58,13.58,0,0,0,548.7,559.6Z"/><rect class="cls-6" x="263.49" y="589.8" width="216.32" height="12.4" rx="4.32" transform="translate(743.29 1192) rotate(-180)"/><rect class="cls-6" x="263.49" y="621.13" width="179.34" height="12.4" rx="4.32" transform="translate(706.31 1254.67) rotate(180)"/><path class="cls-4" d="M991.86,593.24l-53-31.24a7,7,0,0,0-3.61-1H651.3a8.6,8.6,0,0,1-8.78-8.4V471.2a8.6,8.6,0,0,1,8.78-8.4H984.21c4.23,0,7.65,3.76,7.65,8.4Z"/><path class="cls-5" d="M651.3,462.8H984.21c4.23,0,7.65,3.76,7.65,8.4v122l-53-31.24a7,7,0,0,0-3.61-1H651.3a8.6,8.6,0,0,1-8.78-8.4V471.2a8.6,8.6,0,0,1,8.78-8.4m0-5a13.58,13.58,0,0,0-13.75,13.37v81.4A13.58,13.58,0,0,0,651.3,566H935.23a2.17,2.17,0,0,1,1.09.31l53,31.24,7.5,4.41V471.2c0-7.38-5.66-13.37-12.62-13.37Z"/><rect class="cls-6" x="716.69" y="488.03" width="216.32" height="12.4" rx="4.32"/><rect class="cls-6" x="753.67" y="519.36" width="179.34" height="12.4" rx="4.32"/><rect class="cls-7" x="425.79" y="245.07" width="361.74" height="709.87" rx="34.8"/><rect class="cls-8" x="436.88" y="253.48" width="339.56" height="689.67" rx="34.8"/><g class="cls-9"><rect class="cls-10" x="460.4" y="439.83" width="292.52" height="246.71"/><path class="cls-11" d="M752.92,439.83v246.7H460.4V439.83H752.92m3.17-3.17H457.24v253H756.09v-253Z"/><g class="cls-12"><rect class="cls-10" x="460.4" y="722.5" width="292.52" height="73.08"/><path class="cls-11" d="M752.92,722.5v73.08H460.4V722.5H752.92m3.17-3.16H457.24v79.4H756.09v-79.4Z"/></g><circle class="cls-13" cx="488.8" cy="388.04" r="27.08"/><path class="cls-14" d="M488.8,361A27.09,27.09,0,1,1,461.72,388,27.08,27.08,0,0,1,488.8,361m0-3.16A30.25,30.25,0,1,0,519.05,388,30.28,30.28,0,0,0,488.8,357.8Z"/><rect class="cls-13" x="529.23" y="371.05" width="150.35" height="14.85" rx="4.43"/><rect class="cls-13" x="529.23" y="399.1" width="185.18" height="5.94" rx="2.29"/></g><rect class="cls-7" x="536.07" y="245.04" width="142.36" height="34.8" rx="6.33"/><circle class="cls-15" cx="624.99" cy="264" r="4.75"/><circle class="cls-15" cx="583.52" cy="264.19" r="4.75"/><g class="cls-16"><rect class="cls-17" x="698.72" y="523.78" width="50.73" height="50.73" rx="24.05" transform="translate(-118.54 208.79) rotate(-15.18)"/><path class="cls-13" d="M752.44,602.52c-8.59,2.42-17.12,5.06-25.65,7.71-2.59-13.74-5.4-27.43-8-41.16q10.17-2.62,20.34-5.3Q745.58,583.23,752.44,602.52Z"/><path class="cls-13" d="M715,584.29l4.46-1.21c10.07-2.74,25.71-15.74,23-25.81l-2.57-9.46a18.89,18.89,0,0,0-23.17-13.28l-4.46,1.21a18.88,18.88,0,0,0-13.28,23.18l2.56,9.46C704.21,578.44,704.89,587,715,584.29Z"/><rect class="cls-17" x="688.08" y="534.22" width="36.45" height="19.76" rx="9.37" transform="translate(-175.05 409.45) rotate(-28.92)"/><rect class="cls-17" x="718.41" y="528.34" width="24.85" height="19.76" rx="9.37" transform="translate(17.8 -23.36) rotate(1.85)"/><path class="cls-13" d="M735.6,556.18a8.16,8.16,0,0,0,11,5.78A9.88,9.88,0,0,0,753,550.15a8.16,8.16,0,0,0-11-5.78A9.84,9.84,0,0,0,735.6,556.18Z"/><polygon class="cls-13" points="641.11 629.32 639.05 635.87 637 642.42 706.22 664.3 733.78 602.77 719.83 597.04 705.88 591.31 690.1 639.9 641.11 629.32"/><path class="cls-13" d="M619.47,629.72h0a7.27,7.27,0,0,0,4.38,9l9.91,3.72a7.26,7.26,0,0,0,9.47-4.62l.34-1.11a7.25,7.25,0,0,0-5.12-9.2l-10.26-2.61A7.26,7.26,0,0,0,619.47,629.72Z"/><path class="cls-15" d="M704.23,587.83l33,13.56-20.09,44.87-2.24-.75c-3.45-1.16-7-2.28-10.43-3.37L700.76,641c-3.76-1.2-6.65-2.16-9.36-3.11L689,637Z"/><path class="cls-18" d="M646.07,635.71c-4.63-3.61-20.44-14.11-24.14-16.71a2.21,2.21,0,0,0-2.31-.14l-8.36,4.53a2.2,2.2,0,0,0-.31,3.7l26,19a2.21,2.21,0,0,0,2.94-.22l6.44-6.89A2.2,2.2,0,0,0,646.07,635.71Z"/><path class="cls-19" d="M645.5,636.68c-3.42-2.79-21.39-15.1-24.23-17a.72.72,0,0,0-.77,0l-8.38,5.11a.72.72,0,0,0,0,1.18l25.68,19a.7.7,0,0,0,.93-.08l6.88-7.12A.71.71,0,0,0,645.5,636.68Z"/><path class="cls-13" d="M631.67,627.67h0a1.87,1.87,0,0,0,1.62,2L636,630c1.06.13,5.81,1,5.89-.07l0-.29c.08-1.07-4.54-3.63-5.61-3.65l-2.72,0A1.86,1.86,0,0,0,631.67,627.67Z"/><rect class="cls-15" x="702.97" y="589.02" width="77.71" height="95.1" transform="translate(19.17 -21.69) rotate(1.7)"/><polygon class="cls-20" points="766.86 807.5 767.62 814.32 768.39 821.15 648.53 785.99 696.42 714.96 738.52 711.77 691.19 776.51 766.86 807.5"/><path class="cls-20" d="M776.93,852.94l-.11-46.58-8.34,0,0,13.74S771.43,853,776.93,852.94Z"/><path class="cls-21" d="M764.06,806.4l12.76,0,.12,47.25c-11.25,0-12.84-33.25-12.84-33.25Z"/><path class="cls-22" d="M752.16,831.52,751.4,816l-.76-15.52-49.13-26.24L775.06,683a1.89,1.89,0,0,0-1.88-1.93l-72.11-.6L640.59,786.69Z"/><polygon class="cls-13" points="770.59 938.85 763.77 939.11 756.94 939.37 733.55 791.56 742.76 710.39 754.31 713.22 765.86 716.05 752 790.85 770.59 938.85"/><path class="cls-13" d="M725.28,949l46.3-1.78-1-8.35-13.65.52S724.63,943.47,725.28,949Z"/><path class="cls-23" d="M770.06,934.42l1.51,12.78-47,1.8c-1.33-11.27,31.57-14,31.57-14Z"/><path class="cls-24" d="M744.11,921.45l15.47-.44,15.46-.44-10.38-118.2,14.2-122.16-45.34.1a3.15,3.15,0,0,0-3,3.11l-2.67,112.9Z"/><polygon class="cls-13" points="741.31 720.65 747.87 722.69 754.43 724.73 776.46 664.33 779.58 593.4 764.5 593.23 749.42 593.06 754.76 660.51 741.31 720.65"/><path class="cls-13" d="M741.77,742.29h0a7.27,7.27,0,0,0,9-4.4l3.69-9.92a7.26,7.26,0,0,0-4.65-9.46l-1.1-.34a7.25,7.25,0,0,0-9.19,5.15l-2.59,10.27A7.27,7.27,0,0,0,741.77,742.29Z"/><path class="cls-15" d="M746.61,590.43l35.69.41L780.2,640l-2.35.13c-3.65.21-7.36.47-10.94.73l-3.89.28c-3.95.27-7,.45-9.85.57l-2.5.1Z"/></g><circle class="cls-6" cx="371.03" cy="522.48" r="6.55"/><circle class="cls-6" cx="345.53" cy="522.48" r="6.55"/><circle class="cls-6" cx="395.88" cy="522.48" r="6.55"/><circle class="cls-6" cx="840.28" cy="406.07" r="6.55"/><circle class="cls-6" cx="814.78" cy="406.07" r="6.55"/><circle class="cls-6" cx="865.13" cy="406.07" r="6.55"/><path class="cls-25" d="M984.21,457.83H787.43l-.13-178.1A34.8,34.8,0,0,0,752.47,245l-79.86.06a4.41,4.41,0,0,0-.52,0l-129.7.1-.52,0-81.54.06A34.81,34.81,0,0,0,425.55,280l.21,279.6h-210c-7,0-12.62,6-12.62,13.37V703.71l7.5-4.42,53-31.24a2.16,2.16,0,0,1,1.09-.3H425.84L426,920.27A34.8,34.8,0,0,0,460.85,955L753,954.83A34.81,34.81,0,0,0,787.77,920l-.26-354H935.23a2.17,2.17,0,0,1,1.09.31l53,31.24,7.5,4.41V471.2C996.83,463.82,991.17,457.83,984.21,457.83ZM208.14,573h0c0-.29,0-.57,0-.86C208.16,572.4,208.14,572.68,208.14,573Zm156.35-50.49A6.55,6.55,0,1,1,371,529,6.55,6.55,0,0,1,364.49,522.48Zm-25.51,0a6.55,6.55,0,1,1,6.55,6.55A6.55,6.55,0,0,1,339,522.48Zm50.35,0a6.55,6.55,0,1,1,6.55,6.55A6.55,6.55,0,0,1,389.33,522.48ZM833.74,406.07a6.55,6.55,0,1,1,6.54,6.54A6.54,6.54,0,0,1,833.74,406.07Zm-25.51,0a6.55,6.55,0,1,1,6.55,6.54A6.55,6.55,0,0,1,808.23,406.07Zm50.35,0a6.55,6.55,0,1,1,6.55,6.54A6.55,6.55,0,0,1,858.58,406.07Z"/></g></g></svg>